<mxfile host="app.diagrams.net" modified="2024-07-17T13:21:40.601Z" agent="Mozilla/5.0 (Windows NT 10.0; Win64; x64) AppleWebKit/537.36 (KHTML, like Gecko) Chrome/126.0.0.0 Safari/537.36" etag="5ZGg2RobzBsEFGtG27Wf" version="24.7.0" type="device">
  <diagram name="Trang-1" id="btbEhHVcvOekShT8oQrq">
    <mxGraphModel dx="1050" dy="565" grid="1" gridSize="10" guides="1" tooltips="1" connect="1" arrows="1" fold="1" page="1" pageScale="1" pageWidth="827" pageHeight="1169" math="0" shadow="0">
      <root>
        <mxCell id="0" />
        <mxCell id="1" parent="0" />
        <mxCell id="lM2cTjU1Vgr2MKnAc-OL-1" value="Employee" style="swimlane;fontStyle=1;align=center;verticalAlign=top;childLayout=stackLayout;horizontal=1;startSize=26;horizontalStack=0;resizeParent=1;resizeParentMax=0;resizeLast=0;collapsible=1;marginBottom=0;whiteSpace=wrap;html=1;" parent="1" vertex="1">
          <mxGeometry x="390" y="443" width="160" height="220" as="geometry" />
        </mxCell>
        <mxCell id="lM2cTjU1Vgr2MKnAc-OL-2" value="- id: Long&lt;div&gt;- code: String&lt;/div&gt;&lt;div&gt;- name: String&lt;/div&gt;&lt;div&gt;- card_id: String&lt;/div&gt;&lt;div&gt;- gender: int&lt;/div&gt;&lt;div&gt;- status: int&lt;/div&gt;&lt;div&gt;- phone_number: String&lt;/div&gt;&lt;div&gt;- email: String&lt;/div&gt;&lt;div&gt;- password : String&lt;/div&gt;" style="text;strokeColor=none;fillColor=none;align=left;verticalAlign=top;spacingLeft=4;spacingRight=4;overflow=hidden;rotatable=0;points=[[0,0.5],[1,0.5]];portConstraint=eastwest;whiteSpace=wrap;html=1;" parent="lM2cTjU1Vgr2MKnAc-OL-1" vertex="1">
          <mxGeometry y="26" width="160" height="144" as="geometry" />
        </mxCell>
        <mxCell id="lM2cTjU1Vgr2MKnAc-OL-3" value="" style="line;strokeWidth=1;fillColor=none;align=left;verticalAlign=middle;spacingTop=-1;spacingLeft=3;spacingRight=3;rotatable=0;labelPosition=right;points=[];portConstraint=eastwest;strokeColor=inherit;" parent="lM2cTjU1Vgr2MKnAc-OL-1" vertex="1">
          <mxGeometry y="170" width="160" height="8" as="geometry" />
        </mxCell>
        <mxCell id="lM2cTjU1Vgr2MKnAc-OL-4" value="+ Employee()&lt;div&gt;+ Getter/Setter&lt;/div&gt;" style="text;strokeColor=none;fillColor=none;align=left;verticalAlign=top;spacingLeft=4;spacingRight=4;overflow=hidden;rotatable=0;points=[[0,0.5],[1,0.5]];portConstraint=eastwest;whiteSpace=wrap;html=1;" parent="lM2cTjU1Vgr2MKnAc-OL-1" vertex="1">
          <mxGeometry y="178" width="160" height="42" as="geometry" />
        </mxCell>
        <mxCell id="lM2cTjU1Vgr2MKnAc-OL-11" value="EmployeeController" style="swimlane;fontStyle=1;align=center;verticalAlign=top;childLayout=stackLayout;horizontal=1;startSize=26;horizontalStack=0;resizeParent=1;resizeParentMax=0;resizeLast=0;collapsible=1;marginBottom=0;whiteSpace=wrap;html=1;" parent="1" vertex="1">
          <mxGeometry x="50" y="200" width="240" height="120" as="geometry" />
        </mxCell>
        <mxCell id="lM2cTjU1Vgr2MKnAc-OL-12" value="- employeeService: IEmpoyeeService" style="text;strokeColor=none;fillColor=none;align=left;verticalAlign=top;spacingLeft=4;spacingRight=4;overflow=hidden;rotatable=0;points=[[0,0.5],[1,0.5]];portConstraint=eastwest;whiteSpace=wrap;html=1;" parent="lM2cTjU1Vgr2MKnAc-OL-11" vertex="1">
          <mxGeometry y="26" width="240" height="26" as="geometry" />
        </mxCell>
        <mxCell id="lM2cTjU1Vgr2MKnAc-OL-13" value="" style="line;strokeWidth=1;fillColor=none;align=left;verticalAlign=middle;spacingTop=-1;spacingLeft=3;spacingRight=3;rotatable=0;labelPosition=right;points=[];portConstraint=eastwest;strokeColor=inherit;" parent="lM2cTjU1Vgr2MKnAc-OL-11" vertex="1">
          <mxGeometry y="52" width="240" height="8" as="geometry" />
        </mxCell>
        <mxCell id="lM2cTjU1Vgr2MKnAc-OL-14" value="+ getAllEmployee(): List&amp;lt;Employee&amp;gt;&lt;div&gt;&lt;br&gt;&lt;div&gt;+ deleteEmployeeById(Long id): boolean&lt;/div&gt;&lt;/div&gt;" style="text;strokeColor=none;fillColor=none;align=left;verticalAlign=top;spacingLeft=4;spacingRight=4;overflow=hidden;rotatable=0;points=[[0,0.5],[1,0.5]];portConstraint=eastwest;whiteSpace=wrap;html=1;" parent="lM2cTjU1Vgr2MKnAc-OL-11" vertex="1">
          <mxGeometry y="60" width="240" height="60" as="geometry" />
        </mxCell>
        <mxCell id="lM2cTjU1Vgr2MKnAc-OL-15" value="&lt;div&gt;&lt;span style=&quot;font-weight: normal;&quot;&gt;&lt;i&gt;&amp;lt;&amp;lt;interface&amp;gt;&amp;gt;&lt;/i&gt;&lt;/span&gt;&lt;/div&gt;&lt;div&gt;IEmployeeService&lt;/div&gt;" style="swimlane;fontStyle=1;align=center;verticalAlign=top;childLayout=stackLayout;horizontal=1;startSize=40;horizontalStack=0;resizeParent=1;resizeParentMax=0;resizeLast=0;collapsible=1;marginBottom=0;whiteSpace=wrap;html=1;" parent="1" vertex="1">
          <mxGeometry x="50" y="410" width="240" height="120" as="geometry" />
        </mxCell>
        <mxCell id="lM2cTjU1Vgr2MKnAc-OL-17" value="" style="line;strokeWidth=1;fillColor=none;align=left;verticalAlign=middle;spacingTop=-1;spacingLeft=3;spacingRight=3;rotatable=0;labelPosition=right;points=[];portConstraint=eastwest;strokeColor=inherit;" parent="lM2cTjU1Vgr2MKnAc-OL-15" vertex="1">
          <mxGeometry y="40" width="240" height="20" as="geometry" />
        </mxCell>
        <mxCell id="lM2cTjU1Vgr2MKnAc-OL-18" value="+ findAllEmployee(): List&amp;lt;Employee&amp;gt;&lt;div&gt;&lt;br&gt;&lt;div&gt;+ deleteEmployeeById(Long id): boolean&lt;/div&gt;&lt;div&gt;&lt;br&gt;&lt;/div&gt;&lt;/div&gt;" style="text;strokeColor=none;fillColor=none;align=left;verticalAlign=top;spacingLeft=4;spacingRight=4;overflow=hidden;rotatable=0;points=[[0,0.5],[1,0.5]];portConstraint=eastwest;whiteSpace=wrap;html=1;" parent="lM2cTjU1Vgr2MKnAc-OL-15" vertex="1">
          <mxGeometry y="60" width="240" height="60" as="geometry" />
        </mxCell>
        <mxCell id="lM2cTjU1Vgr2MKnAc-OL-24" value="EmployeeService" style="swimlane;fontStyle=1;align=center;verticalAlign=top;childLayout=stackLayout;horizontal=1;startSize=26;horizontalStack=0;resizeParent=1;resizeParentMax=0;resizeLast=0;collapsible=1;marginBottom=0;whiteSpace=wrap;html=1;" parent="1" vertex="1">
          <mxGeometry x="45" y="600" width="250" height="120" as="geometry" />
        </mxCell>
        <mxCell id="lM2cTjU1Vgr2MKnAc-OL-25" value="- employeeRepository: EmployeeRepository" style="text;strokeColor=none;fillColor=none;align=left;verticalAlign=top;spacingLeft=4;spacingRight=4;overflow=hidden;rotatable=0;points=[[0,0.5],[1,0.5]];portConstraint=eastwest;whiteSpace=wrap;html=1;" parent="lM2cTjU1Vgr2MKnAc-OL-24" vertex="1">
          <mxGeometry y="26" width="250" height="26" as="geometry" />
        </mxCell>
        <mxCell id="lM2cTjU1Vgr2MKnAc-OL-26" value="" style="line;strokeWidth=1;fillColor=none;align=left;verticalAlign=middle;spacingTop=-1;spacingLeft=3;spacingRight=3;rotatable=0;labelPosition=right;points=[];portConstraint=eastwest;strokeColor=inherit;" parent="lM2cTjU1Vgr2MKnAc-OL-24" vertex="1">
          <mxGeometry y="52" width="250" height="8" as="geometry" />
        </mxCell>
        <mxCell id="lM2cTjU1Vgr2MKnAc-OL-27" value="+ findAllEmployee(): List&amp;lt;Employee&amp;gt;&lt;div&gt;&lt;br&gt;&lt;div&gt;+ deleteEmployeeById(Long id): boolean&lt;/div&gt;&lt;/div&gt;" style="text;strokeColor=none;fillColor=none;align=left;verticalAlign=top;spacingLeft=4;spacingRight=4;overflow=hidden;rotatable=0;points=[[0,0.5],[1,0.5]];portConstraint=eastwest;whiteSpace=wrap;html=1;" parent="lM2cTjU1Vgr2MKnAc-OL-24" vertex="1">
          <mxGeometry y="60" width="250" height="60" as="geometry" />
        </mxCell>
        <mxCell id="lM2cTjU1Vgr2MKnAc-OL-28" value="&lt;span style=&quot;font-weight: normal;&quot;&gt;&lt;i&gt;&amp;lt;&amp;lt;interface&amp;gt;&amp;gt;&lt;/i&gt;&lt;/span&gt;&lt;div&gt;EmployeeRepository&amp;lt;Employee, Long&amp;gt;&lt;/div&gt;" style="swimlane;fontStyle=1;align=center;verticalAlign=top;childLayout=stackLayout;horizontal=1;startSize=40;horizontalStack=0;resizeParent=1;resizeParentMax=0;resizeLast=0;collapsible=1;marginBottom=0;whiteSpace=wrap;html=1;" parent="1" vertex="1">
          <mxGeometry x="30" y="780" width="280" height="60" as="geometry" />
        </mxCell>
        <mxCell id="lM2cTjU1Vgr2MKnAc-OL-30" value="" style="line;strokeWidth=1;fillColor=none;align=left;verticalAlign=middle;spacingTop=-1;spacingLeft=3;spacingRight=3;rotatable=0;labelPosition=right;points=[];portConstraint=eastwest;strokeColor=inherit;" parent="lM2cTjU1Vgr2MKnAc-OL-28" vertex="1">
          <mxGeometry y="40" width="280" height="20" as="geometry" />
        </mxCell>
        <mxCell id="lM2cTjU1Vgr2MKnAc-OL-37" value="&lt;span style=&quot;font-weight: normal;&quot;&gt;&lt;i&gt;&amp;lt;&amp;lt;interface&amp;gt;&amp;gt;&lt;/i&gt;&lt;/span&gt;&lt;div&gt;JpaRepository&lt;/div&gt;" style="swimlane;fontStyle=1;align=center;verticalAlign=top;childLayout=stackLayout;horizontal=1;startSize=40;horizontalStack=0;resizeParent=1;resizeParentMax=0;resizeLast=0;collapsible=1;marginBottom=0;whiteSpace=wrap;html=1;" parent="1" vertex="1">
          <mxGeometry x="90" y="910" width="160" height="60" as="geometry" />
        </mxCell>
        <mxCell id="lM2cTjU1Vgr2MKnAc-OL-38" value="" style="line;strokeWidth=1;fillColor=none;align=left;verticalAlign=middle;spacingTop=-1;spacingLeft=3;spacingRight=3;rotatable=0;labelPosition=right;points=[];portConstraint=eastwest;strokeColor=inherit;" parent="lM2cTjU1Vgr2MKnAc-OL-37" vertex="1">
          <mxGeometry y="40" width="160" height="20" as="geometry" />
        </mxCell>
        <mxCell id="lM2cTjU1Vgr2MKnAc-OL-41" value="is" style="endArrow=block;endSize=16;endFill=0;html=1;rounded=0;exitX=0.5;exitY=1;exitDx=0;exitDy=0;entryX=0.5;entryY=0;entryDx=0;entryDy=0;" parent="1" source="lM2cTjU1Vgr2MKnAc-OL-28" target="lM2cTjU1Vgr2MKnAc-OL-37" edge="1">
          <mxGeometry y="10" width="160" relative="1" as="geometry">
            <mxPoint x="190" y="1150" as="sourcePoint" />
            <mxPoint x="350" y="1150" as="targetPoint" />
            <mxPoint as="offset" />
          </mxGeometry>
        </mxCell>
        <mxCell id="lM2cTjU1Vgr2MKnAc-OL-42" value="" style="endArrow=diamondThin;endFill=1;endSize=24;html=1;rounded=0;exitX=0.5;exitY=0;exitDx=0;exitDy=0;" parent="1" source="lM2cTjU1Vgr2MKnAc-OL-28" edge="1">
          <mxGeometry width="160" relative="1" as="geometry">
            <mxPoint x="150" y="840" as="sourcePoint" />
            <mxPoint x="170" y="720" as="targetPoint" />
          </mxGeometry>
        </mxCell>
        <mxCell id="lM2cTjU1Vgr2MKnAc-OL-43" value="owns" style="text;html=1;align=center;verticalAlign=middle;whiteSpace=wrap;rounded=0;" parent="1" vertex="1">
          <mxGeometry x="160" y="740" width="60" height="30" as="geometry" />
        </mxCell>
        <mxCell id="lM2cTjU1Vgr2MKnAc-OL-47" value="" style="endArrow=diamondThin;endFill=1;endSize=24;html=1;rounded=0;exitX=0.5;exitY=0;exitDx=0;exitDy=0;entryX=0.5;entryY=1.065;entryDx=0;entryDy=0;entryPerimeter=0;" parent="1" source="lM2cTjU1Vgr2MKnAc-OL-15" target="lM2cTjU1Vgr2MKnAc-OL-14" edge="1">
          <mxGeometry width="160" relative="1" as="geometry">
            <mxPoint x="100" y="370" as="sourcePoint" />
            <mxPoint x="260" y="370" as="targetPoint" />
          </mxGeometry>
        </mxCell>
        <mxCell id="lM2cTjU1Vgr2MKnAc-OL-48" value="owns" style="text;html=1;align=center;verticalAlign=middle;whiteSpace=wrap;rounded=0;" parent="1" vertex="1">
          <mxGeometry x="170" y="360" width="60" height="30" as="geometry" />
        </mxCell>
        <mxCell id="lM2cTjU1Vgr2MKnAc-OL-49" value="Use" style="endArrow=open;endSize=12;dashed=1;html=1;rounded=0;entryX=-0.001;entryY=0.768;entryDx=0;entryDy=0;entryPerimeter=0;exitX=1;exitY=0.5;exitDx=0;exitDy=0;" parent="1" source="lM2cTjU1Vgr2MKnAc-OL-27" target="lM2cTjU1Vgr2MKnAc-OL-2" edge="1">
          <mxGeometry x="-0.0931" y="11" width="160" relative="1" as="geometry">
            <mxPoint x="120" y="550" as="sourcePoint" />
            <mxPoint x="280" y="550" as="targetPoint" />
            <mxPoint as="offset" />
          </mxGeometry>
        </mxCell>
        <mxCell id="lM2cTjU1Vgr2MKnAc-OL-50" value="Use" style="endArrow=open;endSize=12;dashed=1;html=1;rounded=0;exitX=1.001;exitY=0.406;exitDx=0;exitDy=0;exitPerimeter=0;entryX=0;entryY=0.5;entryDx=0;entryDy=0;" parent="1" source="lM2cTjU1Vgr2MKnAc-OL-18" target="lM2cTjU1Vgr2MKnAc-OL-2" edge="1">
          <mxGeometry x="0.1844" y="11" width="160" relative="1" as="geometry">
            <mxPoint x="190" y="590" as="sourcePoint" />
            <mxPoint x="350" y="590" as="targetPoint" />
            <mxPoint as="offset" />
          </mxGeometry>
        </mxCell>
        <mxCell id="lM2cTjU1Vgr2MKnAc-OL-51" value="Use" style="endArrow=open;endSize=12;dashed=1;html=1;rounded=0;entryX=0;entryY=0.215;entryDx=0;entryDy=0;entryPerimeter=0;exitX=1;exitY=0.5;exitDx=0;exitDy=0;" parent="1" source="lM2cTjU1Vgr2MKnAc-OL-14" target="lM2cTjU1Vgr2MKnAc-OL-2" edge="1">
          <mxGeometry x="0.0607" y="24" width="160" relative="1" as="geometry">
            <mxPoint x="190" y="550" as="sourcePoint" />
            <mxPoint x="350" y="550" as="targetPoint" />
            <mxPoint as="offset" />
          </mxGeometry>
        </mxCell>
        <mxCell id="lM2cTjU1Vgr2MKnAc-OL-52" value="Use" style="endArrow=open;endSize=12;dashed=1;html=1;rounded=0;exitX=1;exitY=0.25;exitDx=0;exitDy=0;entryX=0.023;entryY=1.007;entryDx=0;entryDy=0;entryPerimeter=0;" parent="1" source="lM2cTjU1Vgr2MKnAc-OL-28" target="lM2cTjU1Vgr2MKnAc-OL-4" edge="1">
          <mxGeometry x="0.0176" y="15" width="160" relative="1" as="geometry">
            <mxPoint x="190" y="530" as="sourcePoint" />
            <mxPoint x="350" y="530" as="targetPoint" />
            <mxPoint as="offset" />
          </mxGeometry>
        </mxCell>
        <mxCell id="lM2cTjU1Vgr2MKnAc-OL-53" value="" style="endArrow=block;dashed=1;endFill=0;endSize=12;html=1;rounded=0;exitX=0.5;exitY=0;exitDx=0;exitDy=0;" parent="1" source="lM2cTjU1Vgr2MKnAc-OL-24" edge="1">
          <mxGeometry width="160" relative="1" as="geometry">
            <mxPoint x="290" y="750" as="sourcePoint" />
            <mxPoint x="170" y="530" as="targetPoint" />
          </mxGeometry>
        </mxCell>
        <mxCell id="lM2cTjU1Vgr2MKnAc-OL-54" value="realizes" style="text;html=1;align=center;verticalAlign=middle;whiteSpace=wrap;rounded=0;" parent="1" vertex="1">
          <mxGeometry x="170" y="550" width="60" height="30" as="geometry" />
        </mxCell>
      </root>
    </mxGraphModel>
  </diagram>
</mxfile>
